<?xml version="1.0" standalone="no"?>
<!DOCTYPE svg PUBLIC "-//W3C//DTD SVG 20010904//EN"
 "http://www.w3.org/TR/2001/REC-SVG-20010904/DTD/svg10.dtd">
<svg version="1.0" xmlns="http://www.w3.org/2000/svg"
 width="512.000000pt" height="512.000000pt" viewBox="0 0 512.000000 512.000000"
 preserveAspectRatio="xMidYMid meet">
<metadata>
Created by potrace 1.14, written by Peter Selinger 2001-2017
</metadata>
<g transform="translate(0.000000,512.000000) scale(0.100000,-0.100000)"
fill="#000000" stroke="none">
<path d="M2460 4259 c-135 -12 -234 -33 -350 -74 -381 -137 -775 -492 -1045
-940 -89 -148 -187 -360 -200 -435 -3 -18 -7 -36 -9 -39 -5 -9 -15 -108 -17
-166 -2 -73 13 -177 35 -250 2 -5 6 -23 11 -40 14 -54 98 -207 157 -287 77
-104 160 -187 299 -303 66 -54 228 -153 344 -210 230 -113 472 -181 711 -200
97 -7 307 -8 374 -1 471 50 905 250 1211 557 197 198 299 387 334 614 7 44 8
179 1 210 -7 36 -18 105 -17 110 3 27 -93 244 -171 384 -148 266 -407 573
-617 731 -18 14 -45 35 -59 46 -60 47 -180 119 -276 164 -228 108 -467 151
-716 129z"/>
</g>
</svg>
